<?xml version="1.0" encoding="UTF-8"?><svg id="Layer_1" xmlns="http://www.w3.org/2000/svg" viewBox="0 0 286.28 55.37"><path d="M51.5,4.56c-.78-.53-1.79-.73-2.77-.55-7.12,1.25-14.53-.02-20.49-3.52-1.13-.66-2.63-.66-3.76,0-5.96,3.5-13.38,4.77-20.49,3.52-.97-.18-1.99.03-2.77.55C.44,5.09,0,5.89,0,6.72v20.63c0,8.06,4.62,15.62,12.42,20.3l12.03,7.2c1.14.68,2.68.68,3.82,0l12.03-7.2c7.8-4.68,12.43-12.24,12.42-20.3V6.72c0-.84-.44-1.63-1.22-2.16ZM46.13,27.36c0,6.26-3.59,12.14-9.65,15.79l-10.12,6.06-10.12-6.06c-6.06-3.64-9.66-9.52-9.65-15.79V9.91c6.91.5,13.83-.85,19.77-3.85,5.94,3,12.86,4.35,19.77,3.85v17.45Z" fill="#2e67b2"/><path d="M70.33,8.18c.99.32,2,.78,3.02,1.39.35.19.66.35.94.48.27.13.5.19.7.19.29,0,.51-.17.67-.5.16-.34.29-.87.38-1.61h1.1c-.16,2.14-.24,5.79-.24,10.94h-1.1c-.13-1.73-.52-3.38-1.18-4.94-.66-1.57-1.58-2.84-2.78-3.82-1.2-.98-2.6-1.46-4.2-1.46s-2.84.44-3.82,1.32c-.98.88-1.46,2.07-1.46,3.58,0,1.12.24,2.1.72,2.93.48.83,1.15,1.59,2.02,2.28.86.69,2.19,1.62,3.98,2.81l1.54,1.06c1.89,1.25,3.38,2.34,4.46,3.26,1.09.93,1.98,2.01,2.66,3.24.69,1.23,1.03,2.66,1.03,4.3,0,2.05-.53,3.77-1.58,5.16-1.06,1.39-2.49,2.44-4.3,3.14-1.81.7-3.82,1.06-6.02,1.06-1.79,0-3.28-.16-4.46-.48-1.18-.32-2.27-.75-3.26-1.3-.7-.45-1.25-.67-1.63-.67-.29,0-.51.17-.67.5-.16.34-.29.87-.38,1.61h-1.1c.13-2.02.19-6.34.19-12.96h1.1c.22,3.58,1.02,6.49,2.4,8.71,1.38,2.22,3.49,3.34,6.34,3.34,1.73,0,3.15-.46,4.27-1.39,1.12-.93,1.68-2.26,1.68-3.98s-.58-3.33-1.73-4.61c-1.15-1.28-2.98-2.72-5.47-4.32-1.92-1.25-3.46-2.34-4.61-3.26-1.15-.93-2.1-2.02-2.83-3.29-.74-1.26-1.1-2.73-1.1-4.39,0-1.92.49-3.54,1.46-4.87.98-1.33,2.28-2.31,3.91-2.95,1.63-.64,3.42-.96,5.38-.96,1.66,0,2.99.16,3.98.48Z" fill="#231f20"/><path d="M102.35,35.21l.86.29c-.64,2.08-1.78,3.85-3.43,5.3-1.65,1.46-3.7,2.18-6.17,2.18-3.39,0-6.09-1.08-8.09-3.24-2-2.16-3-5.35-3-9.58s1.07-7.62,3.22-9.91c2.14-2.29,4.99-3.43,8.54-3.43,6.02,0,9.02,3.55,9.02,10.66h-13.49c-.03.48-.05,1.23-.05,2.26,0,2.11.3,3.87.89,5.28.59,1.41,1.36,2.43,2.3,3.07.94.64,1.96.96,3.05.96,2.62,0,4.74-1.28,6.34-3.84ZM91.14,19.97c-.75,1.42-1.22,3.62-1.42,6.6h7.54c.06-2.53-.18-4.62-.74-6.26-.56-1.65-1.4-2.47-2.52-2.47s-2.1.71-2.86,2.14Z" fill="#231f20"/><path d="M121.93,17.21c1.06.26,1.94.61,2.64,1.06.83.51,1.48,1.16,1.94,1.94.46.78.7,1.64.7,2.57,0,1.12-.35,2.04-1.06,2.76-.7.72-1.62,1.08-2.74,1.08s-2.02-.32-2.69-.96-1.01-1.5-1.01-2.59c0-.96.3-1.79.91-2.5.61-.7,1.36-1.18,2.26-1.44-.26-.35-.65-.63-1.18-.84-.53-.21-1.1-.31-1.7-.31-1.92,0-3.42,1.05-4.49,3.14-1.07,2.1-1.61,4.84-1.61,8.23s.61,5.89,1.82,7.39c1.22,1.5,2.74,2.26,4.56,2.26,1.09,0,2.18-.29,3.29-.86s2.1-1.58,3-3.02l.82.29c-.64,2.08-1.76,3.86-3.36,5.35-1.6,1.49-3.66,2.23-6.19,2.23-3.3,0-5.98-1.09-8.06-3.26-2.08-2.18-3.12-5.41-3.12-9.7,0-2.81.51-5.21,1.54-7.2,1.02-1.98,2.43-3.48,4.22-4.49,1.79-1.01,3.84-1.51,6.14-1.51,1.18,0,2.3.13,3.36.38Z" fill="#231f20"/><path d="M153.81,37.08c0,1.47.23,2.54.7,3.22s1.26,1.01,2.38,1.01v1.01c-.99-.1-1.98-.14-2.98-.14-2.78,0-5.12.22-7.01.67v-4.32c-1.47,2.98-4.05,4.46-7.73,4.46-2.4,0-4.14-.62-5.23-1.87-.51-.61-.89-1.4-1.13-2.38-.24-.98-.36-2.26-.36-3.86v-12.14c0-1.47-.23-2.54-.7-3.22-.46-.67-1.26-1.01-2.38-1.01v-1.01c.99.1,1.98.14,2.98.14,2.78,0,5.12-.22,7.01-.67v19.87c0,1.34.2,2.35.6,3.02.4.67,1.16,1.01,2.28,1.01,1.28,0,2.38-.54,3.29-1.61.91-1.07,1.37-2.39,1.37-3.96v-12.58c0-1.47-.23-2.54-.7-3.22-.46-.67-1.26-1.01-2.38-1.01v-1.01c1.02.1,2.02.14,2.98.14,2.78,0,5.12-.22,7.01-.67v20.11Z" fill="#231f20"/><path d="M178.76,18.12c.74.86,1.1,1.9,1.1,3.12s-.34,2.15-1.03,2.9c-.69.75-1.59,1.13-2.71,1.13s-1.95-.28-2.59-.84c-.64-.56-.96-1.3-.96-2.23,0-1.54.7-2.78,2.11-3.74-.13-.03-.32-.05-.58-.05-.32,0-.58.03-.77.1-1.22.19-2.25.93-3.1,2.21-.85,1.28-1.27,2.59-1.27,3.94v12.72c0,1.47.36,2.5,1.08,3.07s1.86.86,3.43.86v1.01c-.45,0-.82-.02-1.1-.05-3.26-.1-5.44-.14-6.53-.14-.86,0-2.83.05-5.9.14-.26.03-.58.05-.96.05v-1.01c1.15,0,1.95-.25,2.4-.74.45-.5.67-1.4.67-2.71v-15.12c0-1.47-.22-2.54-.67-3.22-.45-.67-1.25-1.01-2.4-1.01v-1.01c1.02.1,2.02.14,2.98.14,2.85,0,5.18-.22,7.01-.67v4.46c.61-1.38,1.49-2.49,2.64-3.34,1.15-.85,2.45-1.27,3.89-1.27s2.53.43,3.26,1.3Z" fill="#231f20"/><path d="M201.18,35.21l.86.29c-.64,2.08-1.78,3.85-3.43,5.3-1.65,1.46-3.7,2.18-6.17,2.18-3.39,0-6.09-1.08-8.09-3.24-2-2.16-3-5.35-3-9.58s1.07-7.62,3.22-9.91c2.14-2.29,4.99-3.43,8.54-3.43,6.02,0,9.02,3.55,9.02,10.66h-13.49c-.03.48-.05,1.23-.05,2.26,0,2.11.29,3.87.89,5.28.59,1.41,1.36,2.43,2.3,3.07.94.64,1.96.96,3.05.96,2.62,0,4.74-1.28,6.34-3.84ZM189.97,19.97c-.75,1.42-1.22,3.62-1.42,6.6h7.54c.06-2.53-.18-4.62-.74-6.26-.56-1.65-1.4-2.47-2.52-2.47s-2.1.71-2.86,2.14Z" fill="#231f20"/><path d="M220,9.29c-1.15.06-1.99.19-2.52.38-.53.19-.89.56-1.08,1.1-.19.54-.29,1.42-.29,2.64v24.38c0,1.02.08,1.77.24,2.23s.44.78.84.94c.4.16,1.05.24,1.94.24h2.35c2.18,0,4.06-.98,5.64-2.93,1.58-1.95,2.62-4.54,3.1-7.78h1.1c-.1,1.09-.14,2.5-.14,4.22,0,3.07.11,5.6.34,7.58-2.18-.1-5.84-.14-10.99-.14-6.98,0-12.19.05-15.65.14v-.96c1.06-.06,1.83-.19,2.33-.38s.83-.56,1.01-1.1c.18-.54.26-1.42.26-2.64V13.42c0-1.22-.09-2.1-.26-2.64-.18-.54-.51-.91-1.01-1.1s-1.27-.32-2.33-.38v-.96c1.63.1,4.16.14,7.58.14s5.78-.05,7.54-.14v.96Z" fill="#231f20"/><path d="M243.71,37.85c0,1.31.23,2.22.7,2.71.46.5,1.26.74,2.38.74v1.01c-3.2-.13-5.33-.19-6.38-.19-.99,0-3.22.06-6.67.19v-1.01c1.15,0,1.95-.25,2.4-.74.45-.5.67-1.4.67-2.71v-15.12c0-1.47-.22-2.54-.67-3.22-.45-.67-1.25-1.01-2.4-1.01v-1.01c1.02.1,2.02.14,2.98.14,2.85,0,5.18-.22,7.01-.67v20.88ZM243.16,6.1c.78.66,1.18,1.56,1.18,2.71s-.39,2.06-1.18,2.71c-.78.66-1.85.98-3.19.98s-2.41-.33-3.19-.98c-.79-.66-1.18-1.56-1.18-2.71s.39-2.06,1.18-2.71c.78-.66,1.85-.98,3.19-.98s2.41.33,3.19.98Z" fill="#231f20"/><path d="M266.65,6.36c.48.38.87.89,1.18,1.51.3.62.46,1.32.46,2.09,0,.9-.32,1.67-.96,2.33-.64.66-1.46.98-2.45.98-1.09,0-1.97-.3-2.64-.91-.67-.61-1.01-1.44-1.01-2.5,0-.83.24-1.57.72-2.21.48-.64,1.18-1.09,2.11-1.34-.1-.19-.3-.35-.6-.48-.3-.13-.68-.19-1.13-.19-1.22,0-2.08.42-2.59,1.25-.35.48-.59,1.18-.72,2.11-.13.93-.19,2.32-.19,4.18v4.37h5.14v.96h-5.14v18.86c0,1.47.38,2.5,1.13,3.07s1.88.86,3.38.86v1.01l-1.34-.05c-3.55-.1-5.86-.14-6.91-.14-.96,0-3.04.06-6.24.19v-1.01c1.15,0,1.95-.25,2.4-.74.45-.5.67-1.4.67-2.71v-19.34h-3.26v-.96h3.26c0-2.78.22-4.94.67-6.46.45-1.52,1.23-2.82,2.35-3.91.7-.7,1.65-1.28,2.83-1.73,1.18-.45,2.43-.67,3.74-.67,1.98,0,3.7.53,5.14,1.58Z" fill="#231f20"/><path d="M285.32,35.21l.86.29c-.64,2.08-1.78,3.85-3.43,5.3-1.65,1.46-3.7,2.18-6.17,2.18-3.39,0-6.09-1.08-8.09-3.24-2-2.16-3-5.35-3-9.58s1.07-7.62,3.22-9.91c2.14-2.29,4.99-3.43,8.54-3.43,6.02,0,9.02,3.55,9.02,10.66h-13.49c-.03.48-.05,1.23-.05,2.26,0,2.11.29,3.87.89,5.28.59,1.41,1.36,2.43,2.3,3.07.94.64,1.96.96,3.05.96,2.62,0,4.74-1.28,6.34-3.84ZM274.12,19.97c-.75,1.42-1.22,3.62-1.42,6.6h7.54c.06-2.53-.18-4.62-.74-6.26-.56-1.65-1.4-2.47-2.52-2.47s-2.1.71-2.86,2.14Z" fill="#231f20"/></svg>