<svg 
  xmlns="http://www.w3.org/2000/svg" 
  viewBox="0 0 1440 320" 
  preserveAspectRatio="none"
>
  <defs>
    <linearGradient id="blueGradient" x1="0" y1="0" x2="0" y2="1">
      <stop offset="0%" stop-color="#254dbb" />
      <stop offset="100%" stop-color="#0b0c1c" />
    </linearGradient>
  </defs>
  <path fill="url(#blueGradient)"  fill-opacity="1" d="M0,192L48,181.3C96,171,192,149,288,154.7C384,160,480,192,576,192C672,192,768,160,864,122.7C960,85,1056,43,1152,37.3C1248,32,1344,64,1392,80L1440,96L1440,320L1392,320C1344,320,1248,320,1152,320C1056,320,960,320,864,320C768,320,672,320,576,320C480,320,384,320,288,320C192,320,96,320,48,320L0,320Z"></path>

</svg>